# xmcd CD database file
#
# Track frame offsets:
#	150
#	27951
#	37681
#	65991
#	92888
#	103823
#	116984
#	135925
#	141843
#	155810
#	173702
#	185163
#	198207
#	210036
#	224251
#	235545
#	249914
#
# Disc length: 3486 seconds
#
# Revision: 1
# Processed by: cddbd v1.5.2PL0 Copyright (c) Steve Scherf et al.
# Submitted via: CDex 1.51
#
DISCID=ed0d9c11
DTITLE=Michael Haydn - Missa sancti francisi - Six Salve Regina
DYEAR=1900
DGENRE=Classique
TTITLE0=Missa sancti francisi - I. Kyrie   (Helmut Rilling, Liszt Ferenc Chamber Orchestra)
TTITLE1=Missa sancti francisi - II. Gloria
TTITLE2=Missa sancti francisi - III. Domine Deus
TTITLE3=Missa sancti francisi - IV. Quoniam
TTITLE4=Missa sancti francisi - V. Credo
TTITLE5=Missa sancti francisi - VI. Et incarnatus est
TTITLE6=Missa sancti francisi - VII. Et resurrexit
TTITLE7=Missa sancti francisi - VIII. Sanctus
TTITLE8=Missa sancti francisi - IX. Benedictus
TTITLE9=Missa sancti francisi - X. Agnus Dei
TTITLE10=Missa sancti francisi - XI. Dona nobis
TTITLE11=Six Salve Regina - I. Allegro moderato   (Pàl Németh, Savaria Baroque Orchestra)
TTITLE12=Six Salve Regina - II. Allegro non troppo
TTITLE13=Six Salve Regina - III. Andante moderato
TTITLE14=Six Salve Regina - IV. Allegro molto
TTITLE15=Six Salve Regina - V. Adagio
TTITLE16=Six Salve Regina - VI. Allegro moderato
EXTD=
EXTT0=
EXTT1=
EXTT2=
EXTT3=
EXTT4=
EXTT5=
EXTT6=
EXTT7=
EXTT8=
EXTT9=
EXTT10=
EXTT11=
EXTT12=
EXTT13=
EXTT14=
EXTT15=
EXTT16=
PLAYORDER=
